<svg width="104" height="104" viewBox="0 0 104 104" fill="none" xmlns="http://www.w3.org/2000/svg">
<rect width="104" height="104" rx="52" fill="white"/>
<path d="M40.3125 20.15C39.7875 20.45 39.7625 20.6125 39.75 22.9125V25.125L33.3625 52.25C29.4125 69.075 27 79.55 27.025 79.8375C27.05 80.15 27.1625 80.3625 27.375 80.525C27.7 80.7625 38.2875 84 38.7375 84C38.875 84 39.125 83.875 39.3 83.7125C39.525 83.525 41.775 78.3875 47.075 66C51.1875 56.4125 54.575 48.525 54.6125 48.475C54.6875 48.3875 59.375 59.175 59.375 59.4125C59.375 59.4625 58.225 59.5 56.8125 59.5C54.25 59.5 54.2375 59.5 53.9375 59.8125L53.625 60.1125V65.3V70.4875L53.9125 70.8125C54.1625 71.1 54.625 71.2125 59.7875 72.25C63.6875 73.025 65.4625 73.3375 65.6625 73.2625C65.8125 73.2 68.3875 70.95 71.375 68.2625C75.8 64.2875 76.8375 63.2875 76.975 62.9125C77.1 62.5625 77.125 61.8375 77.1 60.25L77.05 58.0625L73.375 41.9375L69.7 25.8125L69.6375 23.2125L69.5625 20.6L69.2125 20.3L68.8625 20H54.7125C44.3 20.0125 40.5 20.05 40.3125 20.15ZM46.125 23.1875V24.25H44H41.875V23.1875V22.125H44H46.125V23.1875ZM51.5 23.1875V24.25H49.875H48.25V23.1875V22.125H49.875H51.5V23.1875ZM55.75 23.1875V24.25H54.6875H53.625V23.1875V22.125H54.6875H55.75V23.1875ZM61.1 23.2125L61.1375 24.25H59.5H57.875V23.1875V22.1125L59.475 22.15L61.0625 22.1875L61.1 23.2125ZM67.5 23.1875V24.25H65.375H63.25V23.1875V22.125H65.375H67.5V23.1875ZM46.125 27.775C46.125 29.4375 45.875 30.1375 45.025 30.9C44.3125 31.5375 43.5125 31.75 41.7875 31.75C40.4875 31.75 40.3625 31.725 40.425 31.525C40.5 31.3 41.625 26.5 41.625 26.425C41.625 26.4 42.6375 26.375 43.875 26.375H46.125V27.775ZM53.625 35.8375V45.3125L45.8625 63.4375C41.5875 73.4 38.0875 81.575 38.075 81.5875C38.0375 81.6375 29.6 79.125 29.425 79.0125C29.325 78.9625 30.9625 71.8 34.575 56.4375C37.4875 44.0625 39.875 33.925 39.875 33.9C39.875 33.8875 40.625 33.875 41.55 33.875C44.225 33.875 45.3125 33.55 46.575 32.35C47.8 31.1875 48.25 29.95 48.25 27.6875V26.375H50.9375H53.625V35.8375ZM57.875 34.6625V42.95L57.225 43.4375C56.8625 43.7 56.375 44.05 56.1625 44.225L55.75 44.525V35.45V26.375H56.8125H57.875V34.6625ZM61.1375 28.125C61.225 30.0625 61.325 30.4625 62 31.4625C62.5625 32.3125 63.2375 32.9 64.1625 33.325C65.1 33.75 65.925 33.875 67.7625 33.875C69.325 33.875 69.375 33.8875 69.4375 34.15C70.875 40.25 74.875 58.425 74.875 58.875V59.5H68.325H61.775L59.075 53.2C57.5875 49.7375 56.375 46.85 56.375 46.7875C56.3875 46.7375 57.1125 46.15 57.9875 45.5C58.875 44.85 59.6875 44.1625 59.8 43.975C59.975 43.6875 60 42.6875 60 35V26.3625L60.5375 26.4L61.0625 26.4375L61.1375 28.125ZM68.275 29C68.6 30.4125 68.8625 31.6125 68.8625 31.675C68.875 31.725 68.125 31.7625 67.225 31.725C65.675 31.6875 65.5125 31.65 64.9 31.325C63.625 30.625 63.25 29.825 63.25 27.8125V26.375L65.4625 26.4L67.6875 26.4375L68.275 29ZM74.875 61.9375C74.875 62.1875 73.9125 63.1125 69.95 66.6875L65.025 71.125L60.6625 70.25C58.275 69.775 56.1875 69.35 56.0375 69.3125L55.75 69.25V65.4375V61.625H65.3125H74.875V61.9375Z" fill="#8F8F8F"/>
</svg>
