<svg width="154" height="154" viewBox="0 0 154 154" fill="none" xmlns="http://www.w3.org/2000/svg">
<g filter="url(#filter0_d_309_854)">
<rect x="25" y="21" width="104" height="104" rx="52" fill="white" shape-rendering="crispEdges"/>
<g clip-path="url(#clip0_309_854)">
<path d="M61.875 43.6125C58.0625 45.0375 54.625 46.3625 54.25 46.5625C53.2375 47.075 52.125 48.25 51.6 49.375C51.0125 50.6125 45 68.7125 45 69.25C45 70.375 45.9375 71.7125 46.9375 71.9875C47.2 72.05 49.7875 72.3 52.7 72.5125L58 72.925V87.125C58 99.5375 58.025 101.35 58.1875 101.587C58.575 102.137 63.5625 103.562 67.2875 104.175C70.925 104.787 72.7625 104.925 77.0625 104.925C81.3625 104.925 83.3875 104.762 86.875 104.175C90.5 103.562 95.4375 102.125 95.8125 101.587C95.975 101.35 96 99.625 96 87.125V72.9375L101.288 72.525C104.188 72.3 106.788 72.0625 107.063 71.9875C108.063 71.7125 109 70.3875 109 69.2375C109 69.0125 107.563 64.5125 105.813 59.25C103.463 52.2125 102.5 49.475 102.15 48.8875C101.588 47.9375 100.588 46.9875 99.6375 46.5125C99.25 46.3125 95.8375 45 92.05 43.575L85.175 41H76.9875H68.8125L61.875 43.6125ZM83.875 43.25C83.875 43.6125 83.3375 45.0125 82.95 45.6875C82.125 47.1 80.2875 48.4125 78.6125 48.8125C76.3 49.35 73.8125 48.6625 72.125 46.9875C71.3 46.175 70.8375 45.4375 70.4125 44.2875C69.8875 42.85 69.1125 43 77 43C83.7375 43 83.875 43 83.875 43.25ZM68.3 44.25C68.4125 44.7 68.7375 45.5375 69.025 46.125C69.45 46.975 69.775 47.4 70.625 48.25C71.825 49.45 72.85 50.1 74.3125 50.5875C75.2 50.8875 75.5 50.925 77 50.925C78.5 50.925 78.8 50.8875 79.6875 50.5875C81.15 50.1 82.175 49.45 83.375 48.25C84.225 47.4 84.55 46.975 84.975 46.125C85.2625 45.5375 85.5875 44.6875 85.7 44.2375L85.9 43.4125L86.8 43.75C87.3125 43.95 87.7 44.175 87.725 44.2875C87.8 44.65 87.025 46.6375 86.4125 47.65C83.6125 52.3375 77.6625 54.2625 72.6625 52.1C69.8625 50.875 67.6 48.4375 66.6 45.5625C66.4 44.975 66.25 44.4 66.275 44.2875C66.3 44.175 66.675 43.95 67.1875 43.75C67.675 43.5625 68.075 43.425 68.075 43.425C68.0875 43.4375 68.1875 43.8 68.3 44.25ZM64.6 45.85C65.8 49.8125 68.9 52.975 72.8875 54.3C74.5875 54.8625 75.9375 55.05 77.675 54.9625C80.05 54.8375 82.225 54.125 84.175 52.825C86.6375 51.1875 88.525 48.675 89.3875 45.875C89.55 45.3625 89.6875 44.9125 89.7 44.9C89.7625 44.8125 98.575 48.175 99 48.4375C99.5625 48.7875 100.3 49.6125 100.6 50.2125C100.738 50.475 102.238 54.8625 103.938 59.975C106.088 66.425 107 69.35 106.95 69.5625C106.913 69.725 106.763 69.925 106.638 70C106.425 70.1 97.45 70.875 96.375 70.875H96V67.25V63.6125L95.6875 63.3125C95.2875 62.9 94.7125 62.9 94.3125 63.3125L94 63.6125V81.975V100.337L92.725 100.725C89.625 101.675 86.5 102.3 82.85 102.712C80.175 103.012 73.825 103.012 71.15 102.712C67.525 102.3 64.6875 101.737 61.5375 100.8L60 100.337V81.975V63.6125L59.675 63.2875C59.4125 63.025 59.275 62.9875 58.9 63.05C58 63.1875 58 63.2125 58 67.2625V70.875H57.6625C56.6125 70.875 47.5625 70.1 47.3625 70C47.2375 69.925 47.0875 69.725 47.05 69.5625C47 69.35 47.9125 66.425 50.0625 59.975C51.7625 54.8625 53.2625 50.475 53.4 50.2125C53.7375 49.5375 54.575 48.65 55.1875 48.3375C55.6875 48.075 63.95 44.9125 64.1875 44.8875C64.2625 44.8875 64.45 45.3125 64.6 45.85Z" fill="#C92071"/>
</g>
</g>
<defs>
<filter id="filter0_d_309_854" x="0" y="0" width="154" height="154" filterUnits="userSpaceOnUse" color-interpolation-filters="sRGB">
<feFlood flood-opacity="0" result="BackgroundImageFix"/>
<feColorMatrix in="SourceAlpha" type="matrix" values="0 0 0 0 0 0 0 0 0 0 0 0 0 0 0 0 0 0 127 0" result="hardAlpha"/>
<feOffset dy="4"/>
<feGaussianBlur stdDeviation="12.5"/>
<feComposite in2="hardAlpha" operator="out"/>
<feColorMatrix type="matrix" values="0 0 0 0 0 0 0 0 0 0 0 0 0 0 0 0 0 0 0.05 0"/>
<feBlend mode="normal" in2="BackgroundImageFix" result="effect1_dropShadow_309_854"/>
<feBlend mode="normal" in="SourceGraphic" in2="effect1_dropShadow_309_854" result="shape"/>
</filter>
<clipPath id="clip0_309_854">
<rect width="64" height="64" fill="white" transform="translate(45 41)"/>
</clipPath>
</defs>
</svg>
